<svg id="Capa_1" enable-background="new 0 0 513 513" height="512" viewBox="0 0 513 513" width="512" xmlns="http://www.w3.org/2000/svg"><g><path d="m505.5 175.38v270.23c0 16.8-29.45 26.11-42.54 15.58l-33.59-43.9c-3.76-3.78-8.87-5.91-14.2-5.91h-239.67c-22.09 0-40-17.91-40-40v-196c0-22.09 17.91-40 40-40h290c22.09 0 40 17.91 40 40z" fill="#ffc682"/><path d="m505.5 442.29v3.32c0 16.8-29.45 26.11-42.54 15.58l-33.59-43.9c-3.76-3.78-8.87-5.91-14.2-5.91h-239.67c-14.8 0-27.73-8.04-34.65-20h287.32c5.33 0 10.44 2.13 14.2 5.91l33.59 43.9c7.38 5.94 19.97 5.57 29.54 1.1z" fill="#ffac5c"/><path d="m408.5 135.38v138c0 37.5-30.5 68-68 68h-205v-166c0-22.09 17.91-40 40-40z" fill="#ffac5c"/><path d="m7.5 261.88v-174.5c0-22.091 17.909-40 40-40h293c22.091 0 40 17.909 40 40v86.5 34 65.5c0 22.091-17.909 40-40 40h-242.674c-5.329 0-10.437 2.127-14.192 5.908l-43.594 43.902c-13.09 10.53-32.54 1.22-32.54-15.58v-51.73z" fill="#2edffc"/><path d="m380.5 267.38v6c0 22.09-17.91 40-40 40h-242.67c-5.33 0-10.44 2.13-14.2 5.91l-43.59 43.9c-13.09 10.53-32.54 1.22-32.54-15.58v-10.92c5.97 1.9 12.86 1.07 18.54-3.5l43.59-43.9c3.76-3.78 8.87-5.91 14.2-5.91h264.67c13.08 0 24.7-6.28 32-16z" fill="#27bdf3"/><g fill="#f5f5f5"><circle cx="194" cy="180.38" r="22.5"/><path d="m254.5 180.38c0-12.069 9.502-21.918 21.433-22.475.354-.016.709-.025 1.067-.025 12.426 0 22.5 10.074 22.5 22.5 0 .723-.034 1.438-.101 2.143-1.079 11.421-10.696 20.357-22.399 20.357-12.426 0-22.5-10.074-22.5-22.5z"/><circle cx="111" cy="180.38" r="22.5"/></g><path d="m216.5 180.38c0 12.43-10.07 22.5-22.5 22.5-9.09 0-16.92-5.38-20.46-13.14 3.35 2 7.27 3.14 11.46 3.14 12.43 0 22.5-10.07 22.5-22.5 0-3.34-.73-6.51-2.04-9.36 6.61 3.91 11.04 11.12 11.04 19.36z" fill="#e1dfe1"/><path d="m299.5 180.38c0 .72-.03 1.44-.1 2.14-1.08 11.42-10.7 20.36-22.4 20.36-9.09 0-16.92-5.38-20.46-13.14 3.35 2 7.27 3.14 11.46 3.14 11.7 0 21.32-8.94 22.4-20.36.07-.7.1-1.42.1-2.14 0-3.34-.73-6.51-2.04-9.36 6.61 3.91 11.04 11.12 11.04 19.36z" fill="#e1dfe1"/><path d="m133.5 180.38c0 12.43-10.07 22.5-22.5 22.5-9.09 0-16.92-5.38-20.46-13.14 3.35 2 7.27 3.14 11.46 3.14 12.43 0 22.5-10.07 22.5-22.5 0-3.34-.73-6.51-2.04-9.36 6.61 3.91 11.04 11.12 11.04 19.36z" fill="#e1dfe1"/></g><g><path d="m340.5 320.88c26.191 0 47.5-21.309 47.5-47.5v-65.5c0-4.142-3.357-7.5-7.5-7.5s-7.5 3.358-7.5 7.5v65.5c0 17.92-14.579 32.5-32.5 32.5h-242.675c-7.274 0-14.387 2.961-19.514 8.123l-43.267 43.573c-3.8 2.89-8.612 3.384-12.947 1.307-4.444-2.129-7.097-6.343-7.097-11.273v-51.73c0-4.142-3.357-7.5-7.5-7.5s-7.5 3.358-7.5 7.5v51.73c0 10.684 5.984 20.187 15.618 24.801 3.828 1.833 7.896 2.734 11.932 2.734 6.123 0 12.172-2.074 17.191-6.112.217-.175.425-.361.621-.559l43.594-43.902c2.33-2.347 5.563-3.692 8.869-3.692h30.175v50.5c0 26.191 21.309 47.5 47.5 47.5h147.5c4.143 0 7.5-3.358 7.5-7.5s-3.357-7.5-7.5-7.5h-147.5c-17.921 0-32.5-14.58-32.5-32.5v-50.5z"/><path d="m465.5 127.88h-77.5v-40.5c0-26.191-21.309-47.5-47.5-47.5h-293c-26.191 0-47.5 21.308-47.5 47.5v174.5c0 4.142 3.357 7.5 7.5 7.5s7.5-3.358 7.5-7.5v-174.5c0-17.92 14.579-32.5 32.5-32.5h293c17.921 0 32.5 14.58 32.5 32.5v86.5c0 4.142 3.357 7.5 7.5 7.5s7.5-3.358 7.5-7.5v-31h77.5c17.921 0 32.5 14.58 32.5 32.5v75.5c0 4.142 3.357 7.5 7.5 7.5s7.5-3.358 7.5-7.5v-75.5c0-26.192-21.309-47.5-47.5-47.5z"/><path d="m505.5 277.38c-4.143 0-7.5 3.358-7.5 7.5v160.73c0 5.318-6.456 8.824-8.436 9.772-7.351 3.522-16.479 3.659-21.282.421l-32.96-43.073c-.195-.256-.407-.499-.634-.727-5.127-5.162-12.239-8.123-19.514-8.123h-58.174c-4.143 0-7.5 3.358-7.5 7.5s3.357 7.5 7.5 7.5h58.175c3.164 0 6.261 1.232 8.564 3.396l33.265 43.472c.365.478.786.909 1.255 1.286 5.401 4.345 12.255 6.087 19.095 6.087 6.703 0 13.394-1.673 18.69-4.21 10.617-5.085 16.956-13.795 16.956-23.3v-160.731c0-4.142-3.357-7.5-7.5-7.5z"/><path d="m224 180.38c0-16.542-13.458-30-30-30s-30 13.458-30 30 13.458 30 30 30 30-13.458 30-30zm-45 0c0-8.271 6.729-15 15-15s15 6.729 15 15-6.729 15-15 15-15-6.729-15-15z"/><path d="m306.866 183.226c.089-.942.134-1.899.134-2.846 0-16.542-13.458-30-30-30-.476 0-.948.011-1.416.033-16.028.747-28.584 13.91-28.584 29.967 0 16.542 13.458 30 30 30 15.564 0 28.403-11.673 29.866-27.154zm-44.866-2.846c0-8.028 6.273-14.609 14.285-14.983.237-.011.476-.017.715-.017 8.271 0 15 6.729 15 15 0 .479-.022.964-.067 1.438-.73 7.731-7.15 13.562-14.933 13.562-8.271 0-15-6.729-15-15z"/><path d="m141 180.38c0-16.542-13.458-30-30-30s-30 13.458-30 30 13.458 30 30 30 30-13.458 30-30zm-45 0c0-8.271 6.729-15 15-15s15 6.729 15 15-6.729 15-15 15-15-6.729-15-15z"/></g></svg>