<svg id="Capa_1" enable-background="new 0 0 512.085 512.085" height="512" viewBox="0 0 512.085 512.085" width="512" xmlns="http://www.w3.org/2000/svg"><g><g fill="#50758d"><ellipse cx="256.043" cy="117.788" rx="110.269" ry="110.288"/><ellipse cx="394.273" cy="394.297" rx="110.269" ry="110.288"/><ellipse cx="117.812" cy="394.297" rx="110.269" ry="110.288"/><path d="m254.898 460.267c-4.024 0-8.059-.141-12.099-.424-11.797-.824-20.572-1.814-30.518-4.439-4.005-1.058-6.395-5.161-5.338-9.166s5.159-6.391 9.166-5.338c8.8 2.323 16.833 3.219 27.735 3.98 17.168 1.202 34.223-.397 50.692-4.748 4.01-1.061 8.108 1.331 9.167 5.335 1.059 4.005-1.33 8.109-5.335 9.167-14.182 3.747-28.757 5.633-43.47 5.633z"/><path d="m105.598 291.429c-.091 0-.181-.002-.271-.005-4.14-.146-7.376-3.622-7.229-7.762 1.669-46.978 20.327-87.978 53.956-118.569 3.065-2.787 7.807-2.562 10.595.501 2.787 3.064 2.563 7.808-.501 10.595-30.572 27.811-47.537 65.159-49.06 108.007-.143 4.047-3.471 7.233-7.49 7.233z"/><path d="m406.488 291.429c-4.019 0-7.347-3.185-7.49-7.233-1.523-42.849-18.488-80.196-49.06-108.007-3.064-2.787-3.288-7.53-.501-10.595s7.531-3.288 10.595-.501c33.628 30.591 52.285 71.591 53.956 118.569.147 4.14-3.089 7.614-7.229 7.762-.091.003-.181.005-.271.005z"/></g><ellipse cx="256.48" cy="72.455" fill="#ffc682" rx="22.476" ry="22.48"/><path d="m256.042 235.576c-64.938 0-117.769-52.84-117.769-117.788s52.832-117.788 117.769-117.788c64.938 0 117.77 52.84 117.77 117.788s-52.831 117.788-117.77 117.788zm0-220.576c-56.667 0-102.769 46.11-102.769 102.788s46.102 102.788 102.769 102.788 102.77-46.11 102.77-102.788-46.103-102.788-102.77-102.788z" fill="#2b597f"/><ellipse cx="394.71" cy="348.964" fill="#ffc682" rx="22.476" ry="22.48"/><path d="m394.274 512.085c-64.938 0-117.77-52.84-117.77-117.788s52.831-117.788 117.77-117.788c64.938 0 117.769 52.84 117.769 117.788s-52.832 117.788-117.769 117.788zm0-220.576c-56.667 0-102.77 46.11-102.77 102.788s46.103 102.788 102.77 102.788 102.769-46.11 102.769-102.788-46.102-102.788-102.769-102.788z" fill="#2b597f"/><ellipse cx="118.249" cy="348.964" fill="#ffc682" rx="22.476" ry="22.48"/><path d="m274.776 85.51c-4.07 5.7-10.75 9.42-18.3 9.42-12.41 0-22.47-10.06-22.47-22.48 0-10.95 7.83-20.08 18.2-22.07-2.65 3.68-4.2 8.19-4.2 13.07 0 12.42 10.06 22.48 22.47 22.48 1.47 0 2.91-.14 4.3-.42z" fill="#ffac5c"/><path d="m412.996 362.02c-4.06 5.7-10.74 9.42-18.29 9.42-12.41 0-22.47-10.06-22.47-22.48 0-10.95 7.83-20.07 18.19-22.07-2.64 3.68-4.19 8.2-4.19 13.07 0 12.42 10.06 22.48 22.47 22.48 1.47 0 2.9-.14 4.29-.42z" fill="#ffac5c"/><path d="m136.536 362.02c-4.06 5.7-10.74 9.42-18.29 9.42-12.41 0-22.47-10.06-22.47-22.48 0-10.95 7.83-20.07 18.19-22.07-2.64 3.68-4.19 8.2-4.19 13.07 0 12.42 10.06 22.48 22.47 22.48 1.47 0 2.9-.14 4.29-.42z" fill="#ffac5c"/><path d="m117.812 512.085c-64.938 0-117.77-52.84-117.77-117.788s52.831-117.788 117.77-117.788 117.77 52.84 117.77 117.788-52.832 117.788-117.77 117.788zm0-220.576c-56.667 0-102.77 46.11-102.77 102.788s46.103 102.788 102.77 102.788 102.77-46.11 102.77-102.788-46.103-102.788-102.77-102.788z" fill="#2b597f"/><path d="m256.043 120.482c-23.788 0-43.072 19.284-43.072 43.072v7.023c0 8.298 6.727 15.025 15.025 15.025h56.094c8.298 0 15.025-6.727 15.025-15.025v-7.023c0-23.788-19.284-43.072-43.072-43.072z" fill="#93ddb7"/><path d="m117.812 396.991c-23.788 0-43.072 19.284-43.072 43.072v7.023c0 8.298 6.727 15.025 15.025 15.025h56.094c8.298 0 15.025-6.727 15.025-15.025v-7.023c0-23.789-19.284-43.072-43.072-43.072z" fill="#fd646f"/><path d="m394.274 396.991c-23.788 0-43.072 19.284-43.072 43.072v7.023c0 8.298 6.727 15.025 15.025 15.025h56.094c8.298 0 15.025-6.727 15.025-15.025v-7.023c-.001-23.789-19.285-43.072-43.072-43.072z" fill="#2edffc"/><path d="m247.996 185.6h-20c-8.3 0-15.03-6.73-15.03-15.02v-7.03c0-23.78 19.29-43.07 43.08-43.07 3.44 0 6.79.4 10 1.17-18.97 4.51-33.08 21.56-33.08 41.9v7.03c0 8.29 6.73 15.02 15.03 15.02z" fill="#5ed297"/><path d="m109.766 462.11h-20c-8.3 0-15.03-6.73-15.03-15.02v-7.03c0-23.79 19.29-43.07 43.08-43.07 3.44 0 6.79.4 10 1.17-18.97 4.5-33.08 21.55-33.08 41.9v7.03c0 8.29 6.73 15.02 15.03 15.02z" fill="#fc4755"/><path d="m386.226 462.11h-20c-8.3 0-15.02-6.73-15.02-15.02v-7.03c0-23.79 19.28-43.07 43.07-43.07 3.44 0 6.79.4 10 1.17-18.97 4.5-33.07 21.55-33.07 41.9v7.03c0 8.29 6.72 15.02 15.02 15.02z" fill="#27bdf3"/></g><g><path d="m227.996 193.102h56.094c12.421 0 22.525-10.105 22.525-22.527v-9.017c0-26.331-23.159-48.576-50.572-48.576-8.063 0-16.189 2.007-23.497 5.803-3.676 1.909-5.108 6.437-3.198 10.112 1.909 3.677 6.438 5.108 10.112 3.198 5.182-2.69 10.916-4.113 16.583-4.113 18.95 0 35.572 15.689 35.572 33.576v9.017c0 4.15-3.376 7.527-7.525 7.527h-56.094c-4.149 0-7.524-3.377-7.524-7.527.079-4.36-.367-11.65.78-15.836.937-4.035-1.575-8.065-5.609-9.002-4.04-.941-8.065 1.575-9.002 5.609-1.501 5.613-1.143 13.417-1.169 19.229-.001 12.421 10.104 22.527 22.524 22.527z"/><path d="m256.48 102.435c16.528 0 29.976-13.449 29.976-29.979 0-16.531-13.447-29.98-29.976-29.98s-29.977 13.449-29.977 29.98c0 16.529 13.448 29.979 29.977 29.979zm0-44.96c8.258 0 14.976 6.72 14.976 14.98s-6.718 14.979-14.976 14.979-14.977-6.72-14.977-14.979c0-8.261 6.719-14.98 14.977-14.98z"/><path d="m432.895 418.752c-3.921 1.336-6.017 5.598-4.681 9.519 1.082 3.176 1.631 6.472 1.631 9.796v9.017c0 4.15-3.375 7.527-7.524 7.527h-56.094c-4.149 0-7.525-3.377-7.525-7.527v-9.017c0-17.887 16.623-33.576 35.572-33.576 4.808 0 9.546.986 14.084 2.931 3.807 1.631 8.217-.133 9.848-3.939 1.632-3.807-.132-8.216-3.939-9.848-6.415-2.749-13.142-4.144-19.992-4.144-27.413 0-50.572 22.245-50.572 48.576v9.017c0 12.422 10.104 22.527 22.525 22.527h56.094c12.42 0 22.524-10.105 22.524-22.527v-9.017c0-4.974-.818-9.896-2.432-14.634-1.335-3.921-5.598-6.012-9.519-4.681z"/><path d="m394.71 378.943c16.528 0 29.976-13.449 29.976-29.979 0-16.531-13.447-29.98-29.976-29.98s-29.977 13.449-29.977 29.98c.001 16.53 13.448 29.979 29.977 29.979zm0-44.96c8.258 0 14.976 6.72 14.976 14.98s-6.718 14.979-14.976 14.979-14.977-6.72-14.977-14.979c.001-8.26 6.72-14.98 14.977-14.98z"/><path d="m414.152 278.195c-2.803-43.57-20.448-81.74-51.278-110.869 7.013-15.068 10.938-31.852 10.938-49.538 0-64.948-52.831-117.788-117.77-117.788-64.938 0-117.769 52.84-117.769 117.788 0 17.8 3.976 34.686 11.073 49.828-30.622 29.075-48.153 67.11-50.962 110.504-55.726 9.291-98.343 57.846-98.343 116.177 0 64.948 52.831 117.788 117.77 117.788 42.042 0 79.003-22.152 99.845-55.395 24.006 4.795 51.883 4.964 76.186-.938 20.731 33.765 57.993 56.333 100.431 56.333 64.938 0 117.769-52.84 117.769-117.788 0-58.173-42.386-106.624-97.89-116.102zm-158.11-263.195c56.667 0 102.77 46.11 102.77 102.788s-46.103 102.788-102.77 102.788-102.769-46.11-102.769-102.788 46.102-102.788 102.769-102.788zm-138.23 482.085c-56.667 0-102.77-46.11-102.77-102.788s46.103-102.788 102.77-102.788 102.77 46.11 102.77 102.788-46.103 102.788-102.77 102.788zm126.033-52.205c-7.136-.499-13.042-1.058-18.739-2.034 6.726-14.811 10.476-31.25 10.476-48.549.144-66.434-55.68-120.275-122.053-117.702 2.958-37.164 17.819-69.87 43.33-95.358 20.957 32.658 57.587 54.34 99.184 54.34 41.712 0 78.426-21.803 99.354-54.611 25.682 25.532 40.643 58.343 43.608 95.647-66.519-2.845-122.659 51.092-122.5 117.685 0 16.97 3.613 33.11 10.1 47.7-13.988 2.916-28.333 3.892-42.76 2.882zm150.429 52.205c-56.667 0-102.77-46.11-102.77-102.788s46.103-102.788 102.77-102.788 102.769 46.11 102.769 102.788-46.102 102.788-102.769 102.788z"/><path d="m117.812 389.49c-27.413 0-50.572 22.245-50.572 48.576v9.017c0 12.422 10.104 22.527 22.525 22.527h10.741c4.143 0 7.5-3.357 7.5-7.5s-3.357-7.5-7.5-7.5h-10.741c-4.149 0-7.525-3.377-7.525-7.527v-9.017c0-17.887 16.623-33.576 35.572-33.576s35.572 15.689 35.572 33.576v9.017c0 4.15-3.376 7.527-7.525 7.527h-10.294c-4.143 0-7.5 3.357-7.5 7.5s3.357 7.5 7.5 7.5h10.294c12.421 0 22.525-10.105 22.525-22.527v-9.017c0-26.331-23.159-48.576-50.572-48.576z"/><path d="m118.249 378.943c16.529 0 29.977-13.449 29.977-29.979 0-16.531-13.447-29.98-29.977-29.98-16.528 0-29.976 13.449-29.976 29.98 0 16.53 13.447 29.979 29.976 29.979zm0-44.96c8.258 0 14.977 6.72 14.977 14.98s-6.719 14.979-14.977 14.979-14.976-6.72-14.976-14.979c0-8.26 6.718-14.98 14.976-14.98z"/></g></svg>