<svg id="Capa_1" enable-background="new 0 0 511.502 511.502" height="512" viewBox="0 0 511.502 511.502" width="512" xmlns="http://www.w3.org/2000/svg"><g><path d="m243.131 33.802v105.19h-.53c-8.23 0-16.29.76-24.1 2.23-3.38.63-6.72 1.4-10 2.29-55.21 14.98-95.81 65.44-95.81 125.39 0 23.59 6.29 45.73 17.29 64.8l-28.48 53.3-62.63-.7c-19.96-34.54-31.37-74.64-31.37-117.4 0-118.27 87.31-216.13 201-232.64 3.31-.48 6.64-.89 10-1.23 7.92-.82 15.96-1.23 24.1-1.23h.53z" fill="#2edffc"/><path d="m243.131 104.002v34.99h-.53c-71.75 0-129.91 58.16-129.91 129.91 0 23.59 6.29 45.73 17.29 64.8l-30.51 17.61c-13.98-24.22-21.97-52.34-21.97-82.31 0-91.13 73.87-165 165-165z" fill="#27bdf3"/><path d="m284.037 500.362c-13.443 2.388-27.297 3.64-41.435 3.64-87.087 0-163.109-47.346-203.733-117.698l91.116-52.606c22.437 38.921 64.471 65.113 112.617 65.113 7.91 0 15.642-.705 23.163-2.062l43.736 51.252z" fill="#fad207"/><path d="m271.871 431.392c-9.53 1.72-19.35 2.61-29.37 2.61-61.15 0-114.53-33.26-143.03-82.69l30.51-17.61c22.44 38.92 64.48 65.11 112.62 65.11 7.91 0 15.64-.71 23.16-2.06z" fill="#faa515"/><path d="m423.171 419.452-.01.01-.01.01c-5.27 6.32-10.86 12.35-16.76 18.07l-.01.01c-2.4 2.35-4.86 4.63-7.36 6.86-.95.85-1.91 1.69-2.87 2.52-31.27 27-69.73 45.89-112.11 53.43l-18.28-103.61c17.25-3.1 33.32-9.61 47.49-18.82 1.28-.83 2.56-1.69 3.81-2.57 2.74-1.92 5.4-3.94 7.98-6.06.01-.01.01-.01.02-.01 6.36-5.22 12.21-11.05 17.46-17.36.02-.02.04-.05.06-.07l.01-.01.01-.01 22.92 19.23 51.49 43.21z" fill="#fd646f"/><path d="m369.471 374.382c-24.32 29.28-58.58 50-97.6 57.01l-6.11-34.64c30.72-5.52 57.69-21.85 76.84-44.91l20.14 16.9z" fill="#fc4755"/><path d="m243.131 33.802 20.37 43.2-20.37 61.99h-.53c-8.23 0-16.29.76-24.1 2.23v-106.19c7.92-.82 15.96-1.23 24.1-1.23z" fill="#27bdf3"/><path d="m423.171 419.452-.01.01-.01.01c-5.27 6.32-10.86 12.35-16.76 18.07l-81.33-68.25c6.36-5.22 12.21-11.05 17.46-17.36.02-.02.04-.05.06-.07l.01-.01 57.91 20.15 16.51 42.28z" fill="#fc4755"/><path d="m504.001 268.9c0 59.959-20.197 115.205-54.138 159.31-3.475 4.516-10.01 5.238-14.375 1.575l-72.748-61.049-20.144-16.894c18.682-22.5 29.916-51.417 29.916-82.943 0-71.572-57.876-129.626-129.385-129.91v-121.263c0-5.696 4.752-10.233 10.443-9.998 139.278 5.749 250.431 120.487 250.431 261.172z" fill="#50758d"/><path d="m407.501 269.002c0 40.06-14.28 76.8-38.03 105.38l-6.73-5.64-20.14-16.9c18.68-22.5 29.91-51.42 29.91-82.94 0-71.57-57.87-129.63-129.38-129.91v-34.99c90.84.34 164.37 74.08 164.37 165z" fill="#2b597f"/></g><path d="m475.659 134.685c-4.744-8.499-17.979-.858-12.992 7.498 22.135 38.354 33.834 82.171 33.834 126.717 0 56.86-19.193 112.245-54.198 156.813l-14.279-11.982c-.011-.009-.02-.019-.03-.028l-40.101-33.646-34.914-29.296c17.482-23.575 27.035-52.361 27.035-81.861 0-36.606-14.229-71.049-40.063-96.981-24.063-24.153-55.544-38.267-89.321-40.2v-116.594c75.987 2.347 145.908 37.918 192.763 98.361 5.854 7.781 17.928-1.589 11.855-9.189-24.549-31.669-56.396-57.889-92.099-75.823-37.443-18.81-77.819-28.389-120.007-28.472-4.034-.088-7.595 3.466-7.515 7.5v18.905c-62.19 1.744-120.4 26.775-164.572 70.948-45.82 45.819-71.054 106.742-71.054 171.545 0 42.594 11.193 84.485 32.369 121.146.001.002.003.005.004.008 12.592 21.805 28.446 41.467 47.124 58.439 3.064 2.785 7.809 2.559 10.595-.507 2.785-3.065 2.559-7.809-.507-10.595-15.671-14.24-29.226-30.499-40.364-48.405l57.627-33.271 20.565-11.873c28.144 43.576 80.544 68.111 132.236 61.419l15.678 88.903c-10.801 1.552-21.777 2.337-32.726 2.337-45.221 0-88.907-13.228-126.338-38.252-3.441-2.3-8.101-1.376-10.403 2.067s-1.377 8.101 2.067 10.403c39.905 26.679 86.475 40.781 134.674 40.781 14.335 0 28.717-1.264 42.746-3.755.005-.001.01-.002.015-.003 53.518-9.521 102.463-37.05 138.648-77.796l14.494 12.161c3.048 2.657 8.052 2.21 10.578-.938 40.25-48.211 62.417-109.392 62.417-172.271.001-47.172-12.393-93.583-35.841-134.213zm-185.563 356.854-15.683-88.932c10.424-2.47 20.521-6.158 30.104-11.002 8.751-4.263 1.851-17.906-6.768-13.387-95.819 50.026-207.64-47.62-170.877-149.316 3.312-9.152-11.134-14.142-14.178-4.898-4.979 14.409-7.504 29.515-7.504 44.896 0 21.577 5.074 42.84 14.73 61.947l-43.406 25.061-34.794 20.088c-17.503-32.784-26.72-69.647-26.72-107.096 0-123.163 98.345-223.791 220.627-227.495v90.263c-42.078 2.145-81.135 23.6-105.528 58.313-5.713 7.884 6.8 16.668 12.273 8.625 22.931-32.633 60.4-52.115 100.229-52.115h.495c67.225.267 121.915 55.18 121.915 122.41 0 28.506-10.01 56.261-28.187 78.152-3.646 4.393-7.638 8.569-11.863 12.414-7.295 6.447 2.997 17.747 10.096 11.094 2.885-2.625 5.672-5.388 8.334-8.259l69.135 58.01c-32.251 36.182-75.249 61.197-122.43 71.227z"/></svg>