<svg height="512pt" viewBox="0 -148 512 512" width="512pt" xmlns="http://www.w3.org/2000/svg"><path d="m474 82.5-45.332031-16.070312 34.582031-16.625c4.980469-2.394532 10.75 1.234374 10.75 6.757812zm0 0" fill="#fff"/><path d="m7.5 35.738281 47.28125 98.511719h428.21875l7.460938-15.070312 9.117187-18.402344c2.632813-5.316406.09375-11.738282-5.46875-13.808594l-88.628906-33.039062-74.359375-27.71875c-33.199219-12.371094-68.339844-18.710938-103.769532-18.710938h-62.402343c-.589844 0-1.179688.050781-1.769531.160156l-54.089844 9.75zm0 0" fill="#fff"/><path d="m405.480469 53.929688h-211.25c-11.820313 0-23-4.910157-31.429688-13.199219-2.269531-2.230469-4.769531-4.203125-7.441406-5.882813-2.78125-1.75-5.75-3.1875-8.871094-4.289062l-37.398437-13.148438 54.089844-9.75c.589843-.109375 1.179687-.160156 1.769531-.160156h62.402343c2.296876 0 4.597657.027344 6.898438.078125 11.039062.261719 22.039062 1.132813 32.949219 2.609375 21.789062 2.953125 43.230469 8.3125 63.921875 16.023438zm0 0" fill="#48ffe0"/><path d="m7.5 35.738281 47.28125 98.511719h12.097656l-11.496094-77.410156zm0 0" fill="#48ffe0"/><path d="m112.300781 72.429688c-7.214843 0-12.054687 7.40625-9.160156 14.011718l26.238281 59.878906c1.589844 3.640626 5.191406 5.988282 9.160156 5.988282h345.382813c8.347656 0 13.019531-9.621094 7.867187-16.179688-5.039062-6.410156-12.597656-10.328125-20.75-10.75l-273.117187-13.941406-16.191406-33.367188c-1.671875-3.453124-5.160157-5.640624-8.992188-5.640624zm0 0" fill="#ffc843"/><path d="m112.300781 72.429688c-7.214843 0-12.054687 7.40625-9.160156 14.011718l26.238281 59.878906c1.589844 3.640626 5.191406 5.988282 9.160156 5.988282h11.472657v-56.289063l-18.410157-23.589843zm0 0" fill="#fff"/><path d="m77.691406 113.484375 10.871094 24.808594c2.894531 6.605469-1.945312 14.011719-9.160156 14.011719h-37.167969c-3.972656 0-7.566406-2.347657-9.160156-5.984376l-10.871094-24.808593c-2.894531-6.609375 1.945313-14.015625 9.160156-14.015625h37.171875c3.96875.003906 7.5625 2.351562 9.15625 5.988281zm0 0" fill="#ffc843"/><path d="m504.5 193.953125c0-8.554687-111.257812-15.484375-248.5-15.484375s-248.5 6.929688-248.5 15.484375c0 8.550781 111.257812 15.484375 248.5 15.484375s248.5-6.933594 248.5-15.484375zm0 0" fill="#76ffd9"/><path d="m506.886719 89.890625c-1.820313-4.601563-5.523438-8.226563-10.15625-9.953125l-15.230469-5.679688v-17.695312c0-5.1875-2.621094-9.933594-7.015625-12.699219-4.390625-2.761719-9.804687-3.066406-14.480469-.820312l-27.1875 13.070312-99.078125-36.929687c-8.691406-3.242188-17.703125-6.128906-26.777343-8.585938-3.996094-1.085937-8.117188 1.277344-9.199219 5.277344-1.082031 3.996094 1.277343 8.117188 5.277343 9.199219 8.632813 2.335937 17.195313 5.085937 25.457032 8.164062l35.390625 13.191407h-147.496094v-31.429688h10.957031c14.160156 0 28.515625 1.070312 42.671875 3.179688 4.097657.609374 7.914063-2.21875 8.519531-6.316407.613282-4.09375-2.214843-7.910156-6.3125-8.519531-14.882812-2.21875-29.984374-3.34375-44.882812-3.34375h-62.390625c-1.039063 0-2.082031.09375-3.105469.277344l-155.679687 28.078125c-2.804688.503906-5.125 2.648437-5.886719 5.378906-.496094 1.785156-.3046875 3.734375.523438 5.386719l29.246093 60.933594c-5.417969.402343-10.332031 3.277343-13.335937 7.871093-3.246094 4.964844-3.761719 11.167969-1.378906 16.597657l10.867187 24.808593c2.789063 6.363281 9.082031 10.476563 16.03125 10.476563h37.167969c5.929687 0 11.40625-2.964844 14.652344-7.925782 2-3.0625 2.957031-6.597656 2.84375-10.128906h22.289062l3.320312 7.578125c2.789063 6.363281 9.082032 10.476563 16.027344 10.476563h61.203125c4.144531 0 7.5-3.359375 7.5-7.5 0-4.144532-3.355469-7.5-7.5-7.5h-61.203125c-.992187 0-1.890625-.585938-2.289062-1.496094l-26.234375-59.875c-.472657-1.078125-.082031-1.949219.195312-2.371094.277344-.425781.914063-1.132812 2.09375-1.132812h60.433594c.953125 0 1.835937.550781 2.25 1.410156l16.183594 33.367188c1.195312 2.460937 3.632812 4.074218 6.367187 4.214843l273.125 13.949219c5.980469.304688 11.53125 3.179688 15.230469 7.890625.839844 1.070313.539063 2.109375.285156 2.636719-.257812.527344-.890625 1.40625-2.25 1.40625h-99.664062c-4.144531 0-7.5 3.359375-7.5 7.5s3.355469 7.5 7.5 7.5h99.664062c6.753907 0 12.785157-3.773438 15.738281-9.851563 2.953126-6.074219 2.195313-13.148437-1.976562-18.460937-.992188-1.257813-2.066406-2.433594-3.203125-3.535156l11.816406-23.859376c2.195313-4.433593 2.410157-9.613281.585938-14.210937zm-342.378907-74.851563c.148438-.027343.296876-.039062.445313-.039062h36.4375v31.429688h-7.15625c-9.632813 0-18.929687-3.921876-26.175781-11.046876-2.636719-2.589843-5.5625-4.90625-8.703125-6.878906-3.253907-2.050781-6.746094-3.738281-10.375-5.019531l-10.613281-3.730469zm-141.464843 35.746094 25.53125 11.25 5.636719 37.964844h-7.546876zm58.453125 92.890625c-.273438.421875-.914063 1.128907-2.09375 1.128907h-37.167969c-.992187 0-1.890625-.585938-2.289063-1.496094l-10.871093-24.808594c-.472657-1.078125-.082031-1.945312.195312-2.371094.277344-.421875.917969-1.132812 2.09375-1.132812h37.167969c.996094 0 1.894531.589844 2.292969 1.5l10.871093 24.808594c.46875 1.078124.078126 1.949218-.199218 2.371093zm121.234375-39.503906-14.25-29.375c-2.90625-5.992187-9.085938-9.867187-15.746094-9.867187h-60.433594c-5.929687 0-11.40625 2.964843-14.648437 7.925781-3.246094 4.964843-3.761719 11.167969-1.382813 16.597656l16.34375 37.296875h-20.917969l-7.132812-16.273438c-2.675781-6.105468-8.574219-10.128906-15.183594-10.445312l-6.578125-44.292969c-.375-2.546875-2.035156-4.722656-4.394531-5.761719l-25.445312-11.210937 75.515624-13.621094 35.519532 12.488281c2.574218.90625 5.054687 2.105469 7.367187 3.5625 2.230469 1.402344 4.3125 3.046876 6.183594 4.886719 10.066406 9.894531 23.097656 15.347657 36.6875 15.347657h26.558594l11.121093 44.230468zm148.007812 7.558594-103.15625-5.269531-11.324219-45.03125h102.1875c.171876.148437.351563.292968.539063.425781l23.117187 16.449219zm115.761719-55.167969v12.105469l-14.183594-5.285157zm26.359375 40.882812-11.15625 22.527344c-3.273437-1.179687-6.730469-1.898437-10.277344-2.078125l-32.261719-1.648437v-12.71875c0-4.140625-3.355468-7.5-7.5-7.5-4.140624 0-7.5 3.359375-7.5 7.5v11.953125l-3.664062-.1875v-11.765625c0-4.140625-3.359375-7.5-7.5-7.5-4.144531 0-7.5 3.359375-7.5 7.5v11l-39.1875-2.003906 11.789062-34.675782c1.0625-3.140625-.054687-6.605468-2.753906-8.527344l-11.089844-7.890624h39.871094l87.359375 32.5625c.90625.335937 1.300781 1.035156 1.453125 1.421874.152344.386719.347656 1.164063-.082031 2.03125zm0 0" fill="#474d54"/><path d="m234.261719 144.804688c-4.144531 0-7.5 3.359374-7.5 7.5 0 4.144531 3.355469 7.5 7.5 7.5h115.476562c4.144531 0 7.5-3.355469 7.5-7.5 0-4.140626-3.355469-7.5-7.5-7.5zm0 0" fill="#474d54"/><path d="m257.0625 82.929688h8.9375c4.140625 0 7.5-3.359376 7.5-7.5 0-4.144532-3.359375-7.5-7.5-7.5h-8.9375c-4.144531 0-7.5 3.355468-7.5 7.5 0 4.140624 3.355469 7.5 7.5 7.5zm0 0" fill="#c2c7d0"/><path d="m486.066406 180.503906c-12.722656-1.875-30.851562-3.550781-53.882812-4.988281-47.085938-2.933594-109.65625-4.546875-176.183594-4.546875s-129.097656 1.613281-176.183594 4.546875c-23.03125 1.4375-41.160156 3.113281-53.882812 4.988281-15.183594 2.238282-25.933594 4.511719-25.933594 13.449219s10.75 11.210937 25.933594 13.449219c12.722656 1.875 30.851562 3.550781 53.882812 4.988281 47.085938 2.933594 109.65625 4.546875 176.183594 4.546875s129.097656-1.613281 176.183594-4.546875c23.03125-1.4375 41.160156-3.117187 53.882812-4.988281 15.183594-2.238282 25.933594-4.511719 25.933594-13.449219s-10.75-11.210937-25.933594-13.449219zm-230.066406 21.433594c-103.710938 0-179.207031-3.835938-216.929688-7.984375 37.722657-4.148437 113.21875-7.984375 216.929688-7.984375s179.207031 3.835938 216.929688 7.984375c-37.722657 4.148437-113.21875 7.984375-216.929688 7.984375zm0 0" fill="#474d54"/></svg>