<svg height="511pt" viewBox="0 -17 511.998 511" width="511pt" xmlns="http://www.w3.org/2000/svg"><path d="m496.613281 198.914062-240.613281 50.078126-240.613281-50.078126c-4.59375-.953124-7.886719-5.003906-7.886719-9.699218v-19.382813c0-5.472656 4.433594-9.90625 9.90625-9.90625h477.1875c5.472656 0 9.90625 4.433594 9.90625 9.90625v19.382813c0 4.695312-3.292969 8.742187-7.886719 9.699218zm0 0" fill="#ffc843"/><path d="m380.65625 427.800781-124.65625 29.46875-124.65625-29.46875c-3.859375-.914062-6.585938-4.359375-6.585938-8.324219v-13.078124c0-4.722657 3.828126-8.554688 8.554688-8.554688h245.375c4.726562 0 8.554688 3.832031 8.554688 8.554688v13.078124c0 3.964844-2.726563 7.410157-6.585938 8.324219zm0 0" fill="#76ffd9"/><path d="m294.769531 63.765625c0 3.257813-.191406 6.449219-.570312 9.550781-7.640625 63.667969-13.527344 127.539063-16.648438 191.527344-1.320312 26.910156-2.152343 53.851562-2.410156 80.800781-.0625 6.191407-.089844 12.378907-.089844 18.570313v77.582031h-38.101562v-77.582031c0-19.308594-.300781-38.609375-.871094-57.898438-2.289063-77.890625-8.988281-155.582031-18.277344-233-.378906-3.101562-.570312-6.292968-.570312-9.550781 0-30.800781 17.359375-55.769531 38.769531-55.769531s38.769531 24.96875 38.769531 55.769531zm0 0" fill="#fff"/><path d="m294.769531 63.765625c0 3.257813-.191406 6.449219-.570312 9.550781-7.640625 63.667969-13.527344 127.539063-16.648438 191.527344-1.320312 26.910156-2.152343 53.851562-2.410156 80.800781-.0625 6.191407-.089844 12.378907-.089844 18.570313v77.582031h-18.082031v-77.582031c0-6.191406.03125-12.378906.089844-18.570313.261718-26.949219 1.089844-53.890625 2.410156-80.800781 3.121094-63.988281 9.011719-127.859375 16.652344-191.527344.378906-3.101562.570312-6.292968.570312-9.550781 0-26.320313-12.679687-48.390625-29.730468-54.242187 2.898437-1 5.929687-1.527344 9.039062-1.527344 21.410156 0 38.769531 24.96875 38.769531 55.769531zm0 0" fill="#d9dfe9"/><path d="m277.550781 264.84375c-1.320312 26.910156-2.152343 53.851562-2.410156 80.800781l-38.191406 38.191407v-19.621094c0-19.308594-.300781-38.609375-.871094-57.898438zm0 0" fill="#ffc843"/><path d="m277.550781 264.84375c-1.320312 26.910156-2.152343 53.851562-2.410156 80.800781l-18.171875 18.171875c0-6.0625.03125-12.113281.089844-18.171875.203125-20.628906.730468-41.257812 1.5625-61.871093zm0 0" fill="#f7a500"/><path d="m270.375 469.289062h-28.75c-9.65625 0-17.484375-7.828124-17.484375-17.484374v-6.953126c0-4.820312 3.90625-8.730468 8.726563-8.730468h46.265624c4.820313 0 8.726563 3.910156 8.726563 8.730468v6.953126c0 9.65625-7.828125 17.484374-17.484375 17.484374zm0 0" fill="#76ffd9"/><path d="m79.757812 180.128906h-11.1875c-3.664062 0-6.632812-2.96875-6.632812-6.632812v-33.152344c0-6.753906 5.472656-12.226562 12.226562-12.226562 6.753907 0 12.226563 5.472656 12.226563 12.226562v33.152344c0 3.664062-2.96875 6.632812-6.632813 6.632812zm0 0" fill="#fff"/><path d="m131.84375 180.128906h-11.1875c-3.664062 0-6.632812-2.96875-6.632812-6.632812v-33.152344c0-6.753906 5.472656-12.226562 12.226562-12.226562s12.226562 5.472656 12.226562 12.226562v33.152344c0 3.664062-2.96875 6.632812-6.632812 6.632812zm0 0" fill="#fff"/><path d="m183.929688 180.128906h-11.1875c-3.664063 0-6.632813-2.96875-6.632813-6.632812v-33.152344c0-6.753906 5.476563-12.226562 12.226563-12.226562 6.753906 0 12.226562 5.472656 12.226562 12.226562v33.152344c0 3.664062-2.96875 6.632812-6.632812 6.632812zm0 0" fill="#fff"/><path d="m341.117188 180.128906h-11.1875c-3.664063 0-6.632813-2.96875-6.632813-6.632812v-33.152344c0-6.753906 5.476563-12.226562 12.226563-12.226562 6.753906 0 12.230468 5.472656 12.230468 12.226562v33.152344c-.003906 3.664062-2.972656 6.632812-6.636718 6.632812zm0 0" fill="#fff"/><path d="m393.203125 180.128906h-11.1875c-3.664063 0-6.632813-2.96875-6.632813-6.632812v-33.152344c0-6.753906 5.476563-12.226562 12.226563-12.226562 6.753906 0 12.230469 5.472656 12.230469 12.226562v33.152344c-.003906 3.664062-2.972656 6.632812-6.636719 6.632812zm0 0" fill="#fff"/><path d="m445.289062 180.128906h-11.1875c-3.664062 0-6.632812-2.96875-6.632812-6.632812v-33.152344c0-6.753906 5.472656-12.226562 12.226562-12.226562 6.753907 0 12.226563 5.472656 12.226563 12.226562v33.152344c0 3.664062-2.96875 6.632812-6.632813 6.632812zm0 0" fill="#fff"/><path d="m494.59375 152.425781h-35.171875v-12.082031c0-10.878906-8.851563-19.726562-19.726563-19.726562-10.878906 0-19.726562 8.847656-19.726562 19.726562v12.082031h-12.632812v-12.082031c0-10.878906-8.851563-19.726562-19.726563-19.726562-10.878906 0-19.726563 8.847656-19.726563 19.726562v12.082031h-12.632812v-12.082031c0-10.878906-8.851562-19.726562-19.726562-19.726562-10.878907 0-19.726563 8.847656-19.726563 19.726562v12.082031h-22.554687c.617187-6.546875 1.253906-13.121093 1.929687-19.765625.417969-4.121094-2.582031-7.800781-6.703125-8.21875-4.117188-.421875-7.800781 2.585938-8.222656 6.707032-4.625 45.578124-7.949219 88.816406-10.039063 130.429687l-1.003906 22.222656c-.796875 19.890625-1.296875 39.425781-1.515625 58.6875l-.132812 21.347657v.378906 64.40625h-23.109376v-64.410156c0-17.996094-.261718-36.277344-.78125-54.871094l-.675781-20.542969c-2.535156-67.128906-8.402343-138.566406-17.746093-216.382813-.339844-2.828124-.511719-5.738281-.511719-8.648437 0-26.164063 14.320312-48.269531 31.269531-48.269531 16.953125 0 31.273438 22.105468 31.273438 48.269531 0 2.902344-.175782 5.8125-.515626 8.652344-.863281 7.191406-1.777343 15.082031-2.796874 24.121093-.464844 4.113282 2.496093 7.828126 6.613281 8.292969 4.109375.457031 7.828125-2.496093 8.292969-6.613281 1.027343-9.125 1.914062-16.757812 2.785156-24.015625.410156-3.429687.617187-6.941406.617187-10.4375 0-16.414063-4.507812-31.9375-12.695312-43.714844-8.765625-12.605469-20.691407-19.550781-33.574219-19.550781s-24.808594 6.941406-33.574219 19.550781c-8.1875 11.777344-12.695312 27.304688-12.695312 43.714844 0 3.507813.207031 7.019531.621093 10.441406 3.214844 26.808594 6.019532 52.851563 8.414063 78.21875h-20.703125v-12.082031c0-10.878906-8.847656-19.726562-19.726562-19.726562-10.875 0-19.726563 8.847656-19.726563 19.726562v12.082031h-12.632813v-12.082031c0-10.878906-8.851562-19.726562-19.726562-19.726562-10.878906 0-19.726562 8.847656-19.726562 19.726562v12.082031h-12.632813v-12.082031c0-10.878906-8.851563-19.726562-19.726563-19.726562-10.878906 0-19.726562 8.847656-19.726562 19.726562v12.082031h-37.03125c-9.597656 0-17.40625 7.808594-17.40625 17.40625v19.382813c0 8.207031 5.828125 15.371094 13.859375 17.042968l134.410156 27.972657c.515625.109375 1.027344.160156 1.535157.160156 3.476562 0 6.597656-2.433594 7.335937-5.972656.84375-4.058594-1.761719-8.027344-5.816406-8.871094l-134.410157-27.976563c-1.109374-.230468-1.914062-1.21875-1.914062-2.355468v-19.382813c0-1.324219 1.078125-2.40625 2.40625-2.40625h37.03125v6.070313c0 7.792968 6.339844 14.132812 14.128906 14.132812h11.191406c7.792969 0 14.132813-6.339844 14.132813-14.132812v-6.070313h12.632813v6.070313c0 7.792968 6.339843 14.132812 14.128906 14.132812h11.191406c7.792969 0 14.132812-6.339844 14.132812-14.132812v-6.070313h12.632813v6.070313c0 7.792968 6.339844 14.132812 14.128906 14.132812h11.191407c7.792968 0 14.132812-6.339844 14.132812-14.132812v-6.070313h22.078125c2.046875 23.039063 3.757813 45.523438 5.125 67.507813l-39.972656-8.320313c-4.058594-.847656-8.027344 1.761719-8.871094 5.816407-.84375 4.054687 1.757813 8.027343 5.8125 8.871093l43.941406 9.144531c2.183594 39.347657 3.269531 77.144532 3.269531 113.769532v26.128906h-21.183593c-4.144531 0-7.5 3.355469-7.5 7.5s3.355469 7.5 7.5 7.5h21.183593v23.648438c-5.859374 1.265624-10.539062 5.699218-12.171874 11.414062l-84.207032-19.902344c-.476562-.113281-.8125-.535156-.8125-1.027344v-13.078124c0-.582032.472656-1.054688 1.054688-1.054688h40.429687c4.144531 0 7.5-3.355469 7.5-7.5 0-4.140625-3.355469-7.5-7.5-7.5h-40.429687c-8.851563 0-16.054688 7.203125-16.054688 16.054688v13.078124c0 7.476563 5.085938 13.902344 12.363282 15.625l87.335937 20.644532c1.894531 11.910156 12.234375 21.042968 24.671875 21.042968h28.746094c12.4375 0 22.777344-9.132812 24.675781-21.042968l87.335937-20.644532c7.277344-1.722656 12.359376-8.148437 12.359376-15.625v-13.078124c0-8.851563-7.203126-16.054688-16.054688-16.054688h-96.132812v-26.128906c0-36.789063 1.078124-74.527344 3.257812-113.765625l212.324219-44.191407c8.03125-1.671874 13.859375-8.835937 13.859375-17.042968v-19.382813c.003906-9.597656-7.804688-17.40625-17.402344-17.40625zm-415.703125 20.203125h-9.453125v-32.285156c0-2.605469 2.121094-4.726562 4.726562-4.726562 2.609376 0 4.726563 2.117187 4.726563 4.726562zm52.085937 0h-9.453124v-32.285156c0-2.605469 2.121093-4.726562 4.726562-4.726562 2.609375 0 4.726562 2.117187 4.726562 4.726562zm52.085938 0h-9.453125v-32.285156c0-2.605469 2.121094-4.726562 4.726563-4.726562 2.609374 0 4.726562 2.117187 4.726562 4.726562zm97.296875 279.175782c0 5.507812-4.476563 9.984374-9.984375 9.984374h-28.75c-5.507812 0-9.984375-4.476562-9.984375-9.984374v-6.953126c0-.675781.550781-1.230468 1.226563-1.230468h46.265624c.679688 0 1.230469.554687 1.230469 1.230468v6.953126zm19.183594-46.460938v7.300781c0 4.144531 3.359375 7.5 7.5 7.5 4.144531 0 7.5-3.355469 7.5-7.5v-7.300781h6.886719v7.300781c0 4.144531 3.355468 7.5 7.5 7.5 4.144531 0 7.5-3.355469 7.5-7.5v-7.300781h42.261718c.582032 0 1.054688.472656 1.054688 1.054688v13.078124c0 .488282-.335938.910157-.8125 1.023438l-84.207032 19.90625c-1.632812-5.714844-6.3125-10.148438-12.171874-11.414062v-23.648438zm135.425781-265c0-2.605469 2.121094-4.726562 4.726562-4.726562 2.609376 0 4.726563 2.117187 4.726563 4.726562v32.285156h-9.453125zm-52.085938 0c0-2.605469 2.121094-4.726562 4.726563-4.726562 2.609375 0 4.726563 2.117187 4.726563 4.726562v32.285156h-9.453126zm-52.085937 0c0-2.605469 2.121094-4.726562 4.726563-4.726562 2.609374 0 4.726562 2.117187 4.726562 4.726562v32.285156h-9.453125zm166.203125 48.871094c0 1.136718-.804688 2.125-1.917969 2.355468l-208.351562 43.363282c1.367187-21.980469 3.078125-44.453125 5.132812-67.507813h23.933594v6.070313c0 7.792968 6.339844 14.132812 14.132813 14.132812h11.1875c7.792968 0 14.132812-6.339844 14.132812-14.132812v-6.070313h12.632812v6.070313c0 7.792968 6.339844 14.132812 14.132813 14.132812h11.1875c7.792969 0 14.132813-6.339844 14.132813-14.132812v-6.070313h12.632812v6.070313c0 7.792968 6.339844 14.132812 14.132812 14.132812h11.1875c7.792969 0 14.132813-6.339844 14.132813-14.132812v-6.070313h35.171875c1.328125 0 2.40625 1.078125 2.40625 2.40625zm0 0" fill="#474d54"/><g fill="#e37f31"><path d="m410.53125 73.625c1.835938-3.714844.308594-8.214844-3.402344-10.046875-6.089844-3.003906-12.625-4.523437-19.433594-4.523437-.019531 0-.035156 0-.054687 0-6.824219.007812-13.378906 1.546874-19.472656 4.574218-3.710938 1.839844-5.226563 6.339844-3.382813 10.050782 1.3125 2.640624 3.964844 4.167968 6.722656 4.167968 1.121094 0 2.257813-.253906 3.332032-.785156 4.007812-1.992188 8.320312-3.003906 12.820312-3.007812h.035156c4.484376 0 8.789063 1 12.792969 2.976562 3.714844 1.832031 8.210938.308594 10.042969-3.40625zm0 0"/><path d="m422.519531 54.089844c1.832031-3.710938.308594-8.210938-3.40625-10.042969-9.835937-4.855469-20.402343-7.316406-31.40625-7.316406-.03125 0-.0625 0-.09375 0-11.035156.015625-21.628906 2.503906-31.476562 7.394531-3.710938 1.84375-5.226563 6.34375-3.382813 10.054688 1.308594 2.636718 3.964844 4.164062 6.722656 4.164062 1.121094 0 2.257813-.25 3.332032-.785156 7.765625-3.855469 16.117187-5.816406 24.824218-5.828125h.074219c8.679688 0 17.011719 1.941406 24.765625 5.769531 3.714844 1.828125 8.210938.304688 10.046875-3.410156zm0 0"/><path d="m338.515625 40.890625c1.121094 0 2.261719-.253906 3.332031-.785156 14.3125-7.109375 29.710938-10.722657 45.757813-10.742188h.136719c15.996093 0 31.355468 3.574219 45.648437 10.628907 3.714844 1.832031 8.210937.308593 10.042969-3.40625 1.832031-3.714844.308594-8.210938-3.40625-10.046876-16.375-8.078124-33.964844-12.175781-52.285156-12.175781-.050782 0-.105469 0-.15625 0-18.375.023438-36.011719 4.164063-52.410157 12.308594-3.710937 1.84375-5.222656 6.34375-3.378906 10.054687 1.308594 2.636719 3.960937 4.164063 6.71875 4.164063zm0 0"/><path d="m387.578125 89.335938h-.09375c-4.140625.046874-7.417969 3.4375-7.375 7.578124.042969 4.117188 3.4375 7.421876 7.542969 7.421876h.082031c4.144531-.042969 7.464844-3.4375 7.421875-7.578126-.042969-4.117187-3.394531-7.421874-7.5-7.421874-.023438 0-.050781 0-.078125 0zm0 0"/><path d="m149.175781 73.625c1.832031-3.714844.304688-8.214844-3.40625-10.046875-6.089843-3.003906-12.625-4.523437-19.433593-4.523437-.019532 0-.035157 0-.054688 0-6.824219.007812-13.378906 1.546874-19.472656 4.574218-3.710938 1.839844-5.222656 6.339844-3.382813 10.050782 1.3125 2.640624 3.964844 4.167968 6.722657 4.167968 1.121093 0 2.257812-.253906 3.332031-.785156 4.007812-1.992188 8.324219-3.003906 12.820312-3.007812h.035157c4.484374 0 8.789062 1 12.792968 2.976562 3.71875 1.832031 8.210938.308594 10.046875-3.40625zm0 0"/><path d="m161.15625 54.089844c1.835938-3.714844.308594-8.210938-3.402344-10.042969-9.839844-4.855469-20.402344-7.316406-31.40625-7.316406-.03125 0-.0625 0-.09375 0-11.035156.015625-21.628906 2.503906-31.480468 7.394531-3.707032 1.84375-5.222657 6.34375-3.378907 10.054688 1.308594 2.636718 3.964844 4.164062 6.722657 4.164062 1.121093 0 2.257812-.25 3.328124-.785156 7.769532-3.855469 16.121094-5.816406 24.828126-5.828125h.074218c8.679688 0 17.011719 1.941406 24.765625 5.769531 3.714844 1.832031 8.210938.304688 10.042969-3.410156zm0 0"/><path d="m77.15625 40.890625c1.121094 0 2.257812-.253906 3.332031-.785156 14.3125-7.109375 29.707031-10.722657 45.757813-10.742188h.136718c15.996094 0 31.351563 3.574219 45.644532 10.628907 3.71875 1.832031 8.214844.308593 10.046875-3.40625 1.832031-3.714844.308593-8.210938-3.40625-10.046876-16.421875-8.101562-34.0625-12.21875-52.441407-12.175781-18.378906.023438-36.011718 4.164063-52.410156 12.308594-3.710937 1.84375-5.222656 6.34375-3.382812 10.054687 1.308594 2.636719 3.964844 4.164063 6.722656 4.164063zm0 0"/><path d="m126.125 89.335938c-4.144531.046874-7.417969 3.4375-7.375 7.578124.042969 4.117188 3.4375 7.421876 7.542969 7.421876h.082031c4.140625-.042969 7.464844-3.4375 7.421875-7.578126-.042969-4.144531-3.414063-7.421874-7.578125-7.421874zm0 0"/></g></svg>