<svg height="512pt" viewBox="-131 0 512 512" width="512pt" xmlns="http://www.w3.org/2000/svg"><path d="m85.488281 339.4375h28.734375v33.269531h-28.734375zm0 0" fill="#48ffe0"/><path d="m242.234375 151.503906-13.25 66.164063c-1.394531 6.964843-8.175781 11.488281-15.136719 10.09375l-17.882812-3.582031c-6.957032-1.394532-11.476563-8.175782-10.082032-15.144532l13.25-66.164062c1.394532-6.964844 8.175782-11.476563 15.136719-10.085938l17.878907 3.582032c6.960937 1.394531 11.480468 8.167968 10.085937 15.136718zm0 0" fill="#48ffe0"/><path d="m242.234375 151.503906-2.425781 12.105469-43.101563-8.628906 2.425781-12.105469c1.394532-6.96875 8.175782-11.480469 15.136719-10.085938l17.878907 3.578126c6.960937 1.394531 11.480468 8.167968 10.085937 15.136718zm0 0" fill="#fff"/><g fill="#ffc843"><path d="m32.253906 224.957031h-6.5625c-8.390625 0-15.195312-6.804687-15.195312-15.199219v-22.816406c0-8.394531 6.804687-15.199218 15.195312-15.199218h6.5625c8.394532 0 15.199219 6.804687 15.199219 15.199218v22.816406c0 8.394532-6.804687 15.199219-15.199219 15.199219zm0 0"/><path d="m69.210938 224.957031h-6.5625c-8.390626 0-15.195313-6.804687-15.195313-15.199219v-22.816406c0-8.394531 6.804687-15.199218 15.195313-15.199218h6.5625c8.394531 0 15.199218 6.804687 15.199218 15.199218v22.816406c0 8.394532-6.804687 15.199219-15.199218 15.199219zm0 0"/><path d="m106.167969 224.957031h-6.5625c-8.394531 0-15.195313-6.804687-15.195313-15.199219v-22.816406c0-8.394531 6.800782-15.199218 15.195313-15.199218h6.5625c8.394531 0 15.199219 6.804687 15.199219 15.199218v22.816406c0 8.394532-6.804688 15.199219-15.199219 15.199219zm0 0"/><path d="m143.125 224.957031h-6.5625c-8.394531 0-15.195312-6.804687-15.195312-15.199219v-22.816406c0-8.394531 6.800781-15.199218 15.195312-15.199218h6.5625c8.394531 0 15.199219 6.804687 15.199219 15.199218v22.816406c0 8.394532-6.804688 15.199219-15.199219 15.199219zm0 0"/><path d="m174.847656 344.957031h-123.847656c-3.886719 0-7.339844-2.488281-8.566406-6.175781l-14.195313-42.628906h169.375l-14.199219 42.628906c-1.226562 3.6875-4.679687 6.175781-8.566406 6.175781zm0 0"/><path d="m209.320312 313.015625h-59.984374v-69.015625h39.578124c16.257813 0 29.433594 13.179688 29.433594 29.4375v30.546875c0 4.988281-4.042968 9.03125-9.027344 9.03125zm0 0"/></g><path d="m182.136719 313.265625h-141.539063c-18.28125 0-33.097656-14.820313-33.097656-33.097656v-61.089844c0-5.515625 4.46875-9.984375 9.984375-9.984375h134.808594c4.726562 0 8.808593 3.316406 9.773437 7.945312zm0 0" fill="#fff"/><path d="m182.132812 313.257812h-18.480468l-20.070313-96.21875c-.96875-4.628906-5.046875-7.949218-9.769531-7.949218h18.480469c4.730469 0 8.8125 3.320312 9.769531 7.949218zm0 0" fill="#d9dfe9"/><path d="m84.410156 55.644531v79.726563c0 8.398437-6.800781 15.207031-15.199218 15.207031h-6.558594c-8.394532 0-15.195313-6.808594-15.195313-15.207031v-79.726563c0-8.398437 6.800781-15.195312 15.195313-15.195312h6.558594c8.398437 0 15.199218 6.796875 15.199218 15.195312zm0 0" fill="#48ffe0"/><path d="m84.410156 55.644531v14.585938h-36.953125v-14.585938c0-8.398437 6.800781-15.195312 15.195313-15.195312h6.558594c8.398437 0 15.199218 6.796875 15.199218 15.195312zm0 0" fill="#fff"/><path d="m121.363281 22.695312v112.675782c0 8.394531-6.800781 15.203125-15.199219 15.203125h-6.558593c-8.398438 0-15.195313-6.808594-15.195313-15.203125v-112.675782c0-8.394531 6.796875-15.195312 15.195313-15.195312h6.558593c8.398438 0 15.199219 6.800781 15.199219 15.195312zm0 0" fill="#48ffe0"/><path d="m121.363281 22.695312v14.585938h-36.953125v-14.585938c0-8.394531 6.796875-15.195312 15.195313-15.195312h6.558593c8.398438 0 15.199219 6.800781 15.199219 15.195312zm0 0" fill="#fff"/><path d="m158.324219 55.644531v79.726563c0 8.398437-6.808594 15.207031-15.195313 15.207031h-6.570312c-8.386719 0-15.195313-6.808594-15.195313-15.207031v-79.726563c0-8.398437 6.808594-15.195312 15.195313-15.195312h6.570312c8.386719 0 15.195313 6.796875 15.195313 15.195312zm0 0" fill="#48ffe0"/><path d="m158.324219 55.644531v14.585938h-36.960938v-14.585938c0-8.398437 6.808594-15.195312 15.195313-15.195312h6.570312c8.386719 0 15.195313 6.796875 15.195313 15.195312zm0 0" fill="#fff"/><path d="m47.457031 82.601562v52.769532c0 8.398437-6.808593 15.207031-15.207031 15.207031h-6.558594c-8.386718 0-15.195312-6.808594-15.195312-15.207031v-52.769532c0-8.394531 6.808594-15.195312 15.195312-15.195312h6.558594c8.398438 0 15.207031 6.800781 15.207031 15.195312zm0 0" fill="#48ffe0"/><path d="m47.457031 82.601562v14.589844h-36.960937v-14.589844c0-8.394531 6.808594-15.195312 15.195312-15.195312h6.558594c8.398438 0 15.207031 6.800781 15.207031 15.195312zm0 0" fill="#fff"/><path d="m200.144531 504.5h-174.4375l19.632813-124.078125c.769531-4.851563 4.949218-8.425781 9.863281-8.425781h115.445313c4.910156 0 9.09375 3.570312 9.859374 8.425781zm0 0" fill="#fff"/><path d="m200.144531 504.5h-18.109375l-19.632812-124.082031c-.769532-4.847657-4.949219-8.417969-9.859375-8.417969h18.101562c4.917969 0 9.097657 3.570312 9.867188 8.417969zm0 0" fill="#d9dfe9"/><path d="m105.4375 427.238281c0 9.285157-7.527344 16.808594-16.8125 16.808594-9.28125 0-16.808594-7.523437-16.808594-16.808594 0-9.285156 7.527344-16.808593 16.808594-16.808593 9.285156 0 16.8125 7.523437 16.8125 16.808593zm0 0" fill="#48ffe0"/><path d="m233.621094 129.015625-17.875-3.582031c-11.007813-2.199219-21.757813 4.960937-23.964844 15.96875l-13.25 66.164062c-1.066406 5.332032.003906 10.761719 3.019531 15.289063 3.019531 4.527343 7.613281 7.605469 12.949219 8.675781l.992188.199219-1.039063 5.1875c-1.804687-.273438-3.65625-.417969-5.539063-.417969h-15.128906l-4.378906-20.996094c-.585938-2.804687-1.851562-5.335937-3.585938-7.453125v-21.109375c0-11.074218-7.972656-20.316406-18.476562-22.296875v-6.972656c10.503906-1.984375 18.476562-11.222656 18.476562-22.296875v-16.707031c0-4.144531-3.355468-7.5-7.5-7.5-4.140624 0-7.5 3.355469-7.5 7.5v16.707031c0 4.242188-3.453124 7.695312-7.695312 7.695312h-6.5625c-4.246094 0-7.699219-3.453124-7.699219-7.695312v-33.863281h5.738281c4.140626 0 7.5-3.355469 7.5-7.5 0-4.140625-3.359374-7.5-7.5-7.5h-5.738281v-30.867188c0-4.242187 3.453125-7.695312 7.699219-7.695312h6.5625c4.242188 0 7.695312 3.453125 7.695312 7.695312v28.6875c0 4.144531 3.359376 7.5 7.5 7.5 4.144532 0 7.5-3.355469 7.5-7.5v-28.6875c0-12.511719-10.179687-22.695312-22.695312-22.695312h-6.5625c-2.703125 0-5.292969.476562-7.699219 1.347656v-11.601563c.003907-12.511718-10.179687-22.695312-22.695312-22.695312h-6.5625c-12.515625 0-22.695313 10.183594-22.695313 22.695312v11.601563c-2.40625-.871094-4.996094-1.347656-7.699218-1.347656h-6.5625c-12.515626 0-22.695313 10.183593-22.695313 22.695312v5.609375c-2.40625-.871094-4.996094-1.347656-7.699219-1.347656h-6.5625c-12.515625 0-22.695312 10.183594-22.695312 22.699219v52.769531c0 11.074219 7.972656 20.3125 18.476562 22.296875v6.972656c-10.503906 1.984375-18.476562 11.222657-18.476562 22.296875v22.359375c-1.890625 2.792969-2.996094 6.15625-2.996094 9.777344v61.089844c0 17.929687 11.6875 33.171875 27.839844 38.53125l7.480468 22.453125c2.25 6.765625 8.554688 11.308594 15.679688 11.308594h6.832031v12.035156h-2.628906c-8.652344 0-15.917969 6.207031-17.269531 14.753906l-4.710938 29.757812c-.648437 4.089844 2.144532 7.933594 6.234375 8.582032 4.097657.648437 7.933594-2.148438 8.582031-6.238282l4.710938-29.757812c.191406-1.214844 1.222656-2.097656 2.453125-2.097656h115.445313c1.226562 0 2.261718.882812 2.453124 2.097656l19.632813 124.078125c.585937 3.691406 3.773437 6.328125 7.398437 6.328125.390626 0 .785157-.03125 1.183594-.09375 4.089844-.644531 6.882813-4.488281 6.234375-8.578125l-19.632812-124.078125c-1.355469-8.550781-8.617188-14.753906-17.273438-14.753906h-2.625v-12.039063h6.828125c7.128906 0 13.429688-4.542969 15.683594-11.304687l6.871094-20.636719h11.917968c9.113282 0 16.527344-7.417969 16.527344-16.53125v-30.546875c0-13.097656-6.859375-24.617188-17.167968-31.175781l1.519531-7.585938 2.171875.433594c1.347656.269531 2.699218.402344 4.042968.402344 3.972657 0 7.863282-1.167969 11.246094-3.421875 4.527344-3.015625 7.605469-7.613282 8.675782-12.945313l13.25-66.167969c2.207031-11.007812-4.957032-21.757812-15.964844-23.960937zm-90.496094 50.226563c4.246094 0 7.699219 3.453124 7.699219 7.699218v14.648438h-21.957031v-14.648438c0-4.246094 3.453124-7.699218 7.695312-7.699218zm-10.78125-21.570313v6.972656c-4.171875.789063-7.945312 2.714844-10.976562 5.453125-3.035157-2.738281-6.808594-4.667968-10.980469-5.453125v-6.972656c4.171875-.789063 7.945312-2.714844 10.980469-5.457031 3.03125 2.742187 6.804687 4.667968 10.976562 5.457031zm-18.476562 29.269531v14.648438h-21.957032v-14.648438c0-4.246094 3.453125-7.699218 7.695313-7.699218h6.5625c4.246093 0 7.699219 3.453124 7.699219 7.699218zm-21.957032-118.378906h5.734375c4.140625 0 7.5-3.355469 7.5-7.5 0-4.140625-3.359375-7.5-7.5-7.5h-5.734375v-30.867188c0-4.242187 3.453125-7.695312 7.695313-7.695312h6.5625c4.246093 0 7.699219 3.453125 7.699219 7.695312v112.679688c0 4.242188-3.453126 7.695312-7.699219 7.695312h-6.5625c-4.242188 0-7.695313-3.453124-7.695313-7.695312zm-7.5 83.652344c3.03125 2.742187 6.804688 4.667968 10.976563 5.457031v6.972656c-4.171875.789063-7.945313 2.714844-10.976563 5.453125-3.035156-2.738281-6.808594-4.667968-10.980468-5.453125v-6.972656c4.171874-.789063 7.945312-2.714844 10.980468-5.457031zm-7.5 34.726562v14.648438h-21.957031v-14.648438c0-4.246094 3.453125-7.699218 7.695313-7.699218h6.5625c4.246093 0 7.699218 3.453124 7.699218 7.699218zm-21.957031-85.429687h5.734375c4.140625 0 7.5-3.355469 7.5-7.5 0-4.140625-3.359375-7.5-7.5-7.5h-5.734375v-30.867188c0-4.242187 3.453125-7.695312 7.695313-7.695312h6.5625c4.246093 0 7.699218 3.453125 7.699218 7.695312v79.730469c0 4.242188-3.453125 7.695312-7.699218 7.695312h-6.5625c-4.242188 0-7.695313-3.453124-7.695313-7.695312zm-7.5 50.703125c3.03125 2.742187 6.804687 4.667968 10.976563 5.457031v6.972656c-4.171876.789063-7.945313 2.714844-10.976563 5.453125-3.035156-2.738281-6.808594-4.667968-10.980469-5.453125v-6.972656c4.171875-.789063 7.945313-2.714844 10.980469-5.457031zm-29.457031-16.839844v-6.902344h5.734375c4.140625 0 7.5-3.359375 7.5-7.5 0-4.144531-3.359375-7.5-7.5-7.5h-5.734375v-30.867187c0-4.246094 3.453125-7.699219 7.695312-7.699219h6.5625c4.246094 0 7.699219 3.453125 7.699219 7.699219v52.769531c0 4.242188-3.453125 7.695312-7.699219 7.695312h-6.5625c-4.242187 0-7.695312-3.453124-7.695312-7.695312zm0 51.566406c0-4.246094 3.453125-7.699218 7.695312-7.699218h6.5625c4.246094 0 7.699219 3.453124 7.699219 7.699218v14.648438h-21.957031zm59.992187 177.554688h-5.160156v-12.039063h5.160156zm28.734375 0h-13.734375v-12.039063h13.734375zm21.742188 0h-6.742188v-12.039063h6.742188zm24.554687 0h-9.554687v-12.039063h9.554687zm23.28125-28.082032c-.210937.625-.792969 1.042969-1.449219 1.042969h-123.851562c-.660156 0-1.242188-.417969-1.449219-1.042969l-5.210937-15.648437h18.394531c4.140625 0 7.5-3.359375 7.5-7.5 0-4.144531-3.359375-7.5-7.5-7.5h-22.136719c-14.113281 0-25.597656-11.484375-25.597656-25.597656v-61.089844c0-1.371094 1.113281-2.484375 2.484375-2.484375h134.808594c1.167969 0 2.191406.832031 2.433593 1.976562l18.183594 87.195313h-75.652344c-4.144531 0-7.5 3.359375-7.5 7.5s3.355469 7.5 7.5 7.5h84.253907zm34.546875-62.976562v30.546875c0 .84375-.683594 1.53125-1.527344 1.53125h-21.140624l-11.265626-54.015625h12c12.09375 0 21.933594 9.839844 21.933594 21.9375zm24.03125-123.40625-13.25 66.167969c-.28125 1.402343-1.089844 2.613281-2.285156 3.410156-1.1875.792969-2.617188 1.074219-4.023438.792969l-17.875-3.578125c-1.40625-.28125-2.617187-1.09375-3.410156-2.285157-.792968-1.191406-1.074218-2.621093-.796875-4.027343l5.402344-26.972657 3.628906.730469c.5.097657.992188.144531 1.480469.144531 3.5 0 6.632812-2.464843 7.347656-6.027343.8125-4.0625-1.820312-8.015625-5.882812-8.828125l-3.628906-.726563 4.902343-24.484375c.511719-2.546875 2.753907-4.3125 5.257813-4.3125.347656 0 .699218.035156 1.054687.105469l17.875 3.582031c2.898438.578125 4.785157 3.410156 4.203125 6.308594zm0 0" fill="#474d54"/><path d="m36.441406 436.640625c-4.09375-.652344-7.929687 2.144531-8.578125 6.234375l-9.566406 60.449219c-.644531 4.09375 2.144531 7.933593 6.238281 8.582031.394532.0625.789063.09375 1.179688.09375 3.625 0 6.8125-2.636719 7.398437-6.328125l9.566407-60.453125c.648437-4.089844-2.144532-7.929688-6.238282-8.578125zm0 0" fill="#474d54"/><path d="m166.597656 477.5h-13.101562c-4.140625 0-7.5 3.355469-7.5 7.5 0 4.140625 3.359375 7.5 7.5 7.5h13.101562c4.144532 0 7.5-3.359375 7.5-7.5 0-4.144531-3.355468-7.5-7.5-7.5zm0 0" fill="#c2c7d0"/><path d="m166.597656 455.621094h-13.101562c-4.140625 0-7.5 3.359375-7.5 7.5s3.359375 7.5 7.5 7.5h13.101562c4.144532 0 7.5-3.359375 7.5-7.5s-3.355468-7.5-7.5-7.5zm0 0" fill="#c2c7d0"/><path d="m166.597656 433.742188h-13.101562c-4.140625 0-7.5 3.359374-7.5 7.5 0 4.144531 3.359375 7.5 7.5 7.5h13.101562c4.144532 0 7.5-3.355469 7.5-7.5 0-4.140626-3.355468-7.5-7.5-7.5zm0 0" fill="#c2c7d0"/></svg>