<svg height="511pt" viewBox="-62 1 511 511.999" width="511pt" xmlns="http://www.w3.org/2000/svg"><path d="m380.171875 193.585938c0 102.773437-83.3125 186.085937-186.085937 186.085937-102.773438 0-186.085938-83.3125-186.085938-186.085937 0-102.773438 83.3125-186.085938 186.085938-186.085938 102.773437 0 186.085937 83.3125 186.085937 186.085938zm0 0" fill="#fff"/><path d="m232.320312 203.1875c0-24.425781 13.988282-44.230469 31.238282-44.230469 17.253906 0 31.242187 19.804688 31.242187 44.230469v240.800781h-62.480469zm0 0" fill="#ffc843"/><path d="m294.800781 203.1875v240.804688h-16.863281v-240.804688c0-20.289062-9.652344-37.390625-22.804688-42.59375 2.679688-1.0625 5.503907-1.632812 8.425782-1.632812 17.257812 0 31.242187 19.800781 31.242187 44.226562zm0 0" fill="#f7a500"/><path d="m93.371094 203.1875c0-24.425781 13.988281-44.230469 31.238281-44.230469 17.253906 0 31.242187 19.804688 31.242187 44.230469v240.800781h-62.480468zm0 0" fill="#ffc843"/><path d="m155.851562 203.1875v240.804688h-18.875v-240.804688c0-19.769531-9.164062-36.507812-21.808593-42.160156 2.972656-1.351563 6.152343-2.066406 9.445312-2.066406 17.253907 0 31.238281 19.800781 31.238281 44.226562zm0 0" fill="#f7a500"/><path d="m306.160156 463.515625h-85.632812v-90.351563l88.898437 30.363282c4.09375 1.398437 6.847657 5.246094 6.847657 9.570312v40.304688c0 5.585937-4.53125 10.113281-10.113282 10.113281zm0 0" fill="#76ffd9"/><path d="m82.011719 463.515625h85.632812v-90.351563l-88.902343 30.363282c-4.09375 1.398437-6.84375 5.246094-6.84375 9.570312v40.304688c0 5.585937 4.527343 10.113281 10.113281 10.113281zm0 0" fill="#76ffd9"/><path d="m151.238281 150.886719c0-33.277344 19.050781-60.25 42.550781-60.25s42.550782 26.972656 42.550782 60.25v317.871093c0 5.585938-4.527344 10.113282-10.113282 10.113282h-64.875c-5.585937 0-10.113281-4.527344-10.113281-10.113282zm0 0" fill="#fff"/><path d="m236.339844 150.886719v317.875c0 5.578125-4.53125 10.109375-10.109375 10.109375h-15.644531c5.578124 0 10.109374-4.53125 10.109374-10.109375v-317.875c0-29.492188-14.960937-54.035157-34.722656-59.21875 2.535156-.675781 5.152344-1.027344 7.824219-1.027344 23.5 0 42.542969 26.96875 42.542969 60.246094zm0 0" fill="#d9dfe9"/><path d="m205.542969 504.5h-22.914063v-92.90625c0-6.328125 5.128906-11.457031 11.457032-11.457031 6.328124 0 11.457031 5.128906 11.457031 11.457031zm0 0" fill="#76ffd9"/><path d="m387.671875 193.585938c0-15.347657-1.816406-30.660157-5.394531-45.515626-.972656-4.023437-5.023438-6.503906-9.050782-5.53125-4.027343.96875-6.503906 5.019532-5.53125 9.046876 2.71875 11.285156 4.316407 22.859374 4.800782 34.5h-72.332032c-1.617187-6.246094-4.125-12.039063-7.429687-17.078126-1.460937-22.871093-4.976563-44.855468-10.296875-64.984374 21.074219-3.890626 40.078125-9.179688 55.953125-15.65625 7.195313 9.84375 13.445313 20.503906 18.578125 31.890624 1.703125 3.773438 6.148438 5.453126 9.921875 3.753907 3.777344-1.703125 5.457031-6.144531 3.753906-9.921875-31.253906-69.308594-100.558593-114.089844-176.558593-114.089844-106.742188 0-193.585938 86.84375-193.585938 193.585938 0 64.410156 31.90625 124.417968 85.34375 160.519531.007812.007812.019531.011719.027344.015625v39.046875l-9.550782 3.261719c-7.132812 2.4375-11.921874 9.136718-11.921874 16.667968v40.304688c0 9.710937 7.902343 17.613281 17.613281 17.613281h61.886719c1.117187 8.644531 8.507812 15.351563 17.453124 15.351563h13.777344v18.132812c0 4.140625 3.355469 7.5 7.5 7.5h22.910156c4.144532 0 7.5-3.359375 7.5-7.5v-18.132812h13.1875c8.945313 0 16.339844-6.707032 17.453126-15.351563h62.476562c9.714844 0 17.617188-7.902344 17.617188-17.613281v-40.300782c0-7.535156-4.792969-14.234374-11.921876-16.671874l-9.550781-3.261719v-39.058594c53.472657-36.113281 85.371094-96.035156 85.371094-160.523437zm-85.371094 142.082031v-32.816407c9.53125 2.441407 18.324219 5.195313 26.28125 8.222657-7.84375 8.976562-16.625 17.234375-26.28125 24.59375zm-15-132.480469v184.859375l-43.460937-14.84375v-190.226563c4.449218-10.195312 11.988281-16.519531 19.71875-16.519531 12.871094 0 23.742187 16.820313 23.742187 36.730469zm-53.410156-92.992188c11.589844-.871093 22.863281-2.113281 33.695313-3.710937 4.027343 14.945313 7.011718 31.035156 8.835937 47.832031-4.0625-1.871094-8.390625-2.859375-12.863281-2.859375-7.050782 0-13.84375 2.558594-19.71875 7.15625v-7.726562c0-14.867188-3.503906-29.035157-9.949219-40.691407zm94.6875-34.085937c-14.492187 5.519531-31.550781 10.058594-50.375 13.453125-4.570313-14.160156-10.089844-27.179688-16.457031-38.65625-6.683594-12.039062-14.148438-22.085938-22.171875-29.992188 34.496093 9.121094 65.542969 28.410157 89.003906 55.195313zm-126.992187-60.367187c17.082031 3.367187 33.554687 18.136718 47.042968 42.445312 5.582032 10.058594 10.472656 21.421875 14.597656 33.78125-12.785156 1.8125-26.222656 3.128906-40.09375 3.898438-6.367187-6.234376-13.703124-10.3125-21.546874-11.929688zm-15 0v68.085937c-8.050782 1.53125-15.585938 5.632813-22.105469 12.007813-13.664063-.773438-26.914063-2.078126-39.53125-3.867188 4.160156-12.464844 9.09375-23.917969 14.730469-34.035156 13.464843-24.152344 29.886718-38.835938 46.90625-42.191406zm-37.933594 5.121093c-7.984375 7.855469-15.417969 17.828125-22.074219 29.769531-6.429687 11.539063-12.003906 24.648438-16.613281 38.925782-18.785156-3.390625-35.824219-7.917969-50.296875-13.417969 23.160156-26.472656 53.988281-46.0625 88.984375-55.277344zm-98.792969 67.535157c15.855469 6.457031 34.835937 11.734374 55.871094 15.621093-5.316407 20.132813-8.839844 42.121094-10.300781 64.992188-3.300782 5.039062-5.808594 10.828125-7.421876 17.074219h-72.339843c1.511719-36.417969 13.980469-70.050782 34.191406-97.6875zm9.738281 222.671874c7.957032-3.023437 16.742188-5.777343 26.273438-8.21875v32.800782c-9.652344-7.355469-18.429688-15.605469-26.273438-24.582032zm84.140625 144.945313h-6.449219v-6.804687c0-4.144532-3.355468-7.5-7.5-7.5-4.140624 0-7.5 3.355468-7.5 7.5v6.804687h-5.566406v-6.804687c0-4.144532-3.355468-7.5-7.5-7.5-4.140625 0-7.5 3.355468-7.5 7.5v6.804687h-19.710937c-1.4375 0-2.613281-1.171875-2.613281-2.613281v-40.300782c0-1.121093.710937-2.113281 1.769531-2.476562l62.570312-21.371094zm0-82.613281-42.867187 14.644531v-127.785156c0-4.144531-3.359375-7.5-7.5-7.5-4.144532 0-7.5 3.355469-7.5 7.5v27.132812c-13.332032 3.246094-25.4375 7.078125-36.074219 11.417969-20.558594-28.179688-32.628906-62.070312-34.121094-97.726562h70.230469c-.019531.699218-.035156 1.398437-.035156 2.105468v22.546875c0 4.144531 3.355468 7.5 7.5 7.5 4.140625 0 7.5-3.355469 7.5-7.5v-22.546875c0-19.914062 10.871094-36.734375 23.738281-36.734375 7.148437 0 14.140625 5.359375 18.699219 14.339844.128906.257813.273437.5.429687.734375zm0-222.515625v7.257812c-5.734375-4.308593-12.296875-6.6875-19.128906-6.6875-4.472656 0-8.800781.988281-12.859375 2.859375 1.820312-16.796875 4.808594-32.890625 8.835938-47.832031 10.65625 1.570313 21.738281 2.800781 33.125 3.667969-6.457032 11.664062-9.972657 25.851562-9.972657 40.734375zm54.304688 346.113281h-7.914063v-85.40625c0-2.183594 1.773438-3.957031 3.957032-3.957031 2.179687 0 3.957031 1.773437 3.957031 3.957031zm108.960937-86.375c1.058594.363281 1.769532 1.355469 1.769532 2.476562v40.300782c0 1.441406-1.175782 2.613281-2.613282 2.613281h-19.710937v-6.804687c0-4.144532-3.359375-7.5-7.5-7.5-4.144531 0-7.5 3.355468-7.5 7.5v6.804687h-5.566407v-6.804687c0-4.144532-3.355468-7.5-7.5-7.5-4.144531 0-7.5 3.355468-7.5 7.5v6.804687h-7.039062v-17.851563c0-4.144531-3.359375-7.5-7.5-7.5-4.144531 0-7.5 3.355469-7.5 7.5v30.59375c0 1.4375-1.175781 2.613282-2.617188 2.613282h-13.183593v-59.777344c0-10.453125-8.503907-18.957031-18.957031-18.957031-10.453126 0-18.957032 8.503906-18.957032 18.957031v59.777344h-13.773437c-1.441407 0-2.613281-1.175782-2.613281-2.613282v-317.871093c0-28.59375 16.050781-52.75 35.050781-52.75s35.050781 24.15625 35.050781 52.75v250.304687c0 4.144532 3.355469 7.5 7.5 7.5s7.5-3.355468 7.5-7.5v-12.136718zm-4.742187-209.539062h70.234375c-1.488282 35.6875-13.554688 69.566406-34.113282 97.730468-10.640624-4.339844-22.75-8.171875-36.082031-11.421875v-84.203125c0-.707031-.015625-1.40625-.039062-2.105468zm0 0" fill="#474d54"/><path d="m193.789062 247.183594c-4.140624 0-7.5 3.355468-7.5 7.5v67.609375c0 4.144531 3.359376 7.5 7.5 7.5 4.144532 0 7.5-3.355469 7.5-7.5v-67.609375c0-4.144532-3.355468-7.5-7.5-7.5zm0 0" fill="#c2c7d0"/><path d="m194.085938 152.207031c-13.894532 0-25.199219 11.304688-25.199219 25.199219 0 4.144531 3.355469 7.5 7.5 7.5s7.5-3.355469 7.5-7.5c0-5.625 4.574219-10.199219 10.199219-10.199219s10.199218 4.574219 10.199218 10.199219c0 4.144531 3.355469 7.5 7.5 7.5 4.140625 0 7.5-3.355469 7.5-7.5 0-13.894531-11.304687-25.199219-25.199218-25.199219zm0 0" fill="#c2c7d0"/><g fill="#fff"><path d="m66.355469 241.847656h-19.964844c-4.144531 0-7.5 3.359375-7.5 7.5 0 4.144532 3.355469 7.5 7.5 7.5h19.964844c4.140625 0 7.5-3.355468 7.5-7.5 0-4.140625-3.359375-7.5-7.5-7.5zm0 0"/><path d="m66.355469 263.308594h-6.964844c-4.144531 0-7.5 3.355468-7.5 7.5 0 4.140625 3.355469 7.5 7.5 7.5h6.964844c4.140625 0 7.5-3.359375 7.5-7.5 0-4.144532-3.359375-7.5-7.5-7.5zm0 0"/><path d="m66.355469 215.125c-4.144531 0-7.5 3.359375-7.5 7.5v.101562c0 4.144532 3.355469 7.5 7.5 7.5 4.140625 0 7.5-3.355468 7.5-7.5v-.101562c0-4.140625-3.359375-7.5-7.5-7.5zm0 0"/><path d="m321.816406 256.847656h19.964844c4.140625 0 7.5-3.355468 7.5-7.5 0-4.140625-3.359375-7.5-7.5-7.5h-19.964844c-4.144531 0-7.5 3.359375-7.5 7.5 0 4.144532 3.359375 7.5 7.5 7.5zm0 0"/><path d="m321.816406 278.308594h6.964844c4.140625 0 7.5-3.359375 7.5-7.5 0-4.144532-3.359375-7.5-7.5-7.5h-6.964844c-4.144531 0-7.5 3.355468-7.5 7.5 0 4.140625 3.359375 7.5 7.5 7.5zm0 0"/><path d="m321.816406 230.226562c4.144532 0 7.5-3.355468 7.5-7.5v-.101562c0-4.140625-3.355468-7.5-7.5-7.5-4.144531 0-7.5 3.359375-7.5 7.5v.101562c0 4.144532 3.359375 7.5 7.5 7.5zm0 0"/></g></svg>